<mxfile host="app.diagrams.net" modified="2023-05-09T23:56:09.633Z" agent="Mozilla/5.0 (Macintosh; Intel Mac OS X 10_15_7) AppleWebKit/537.36 (KHTML, like Gecko) Chrome/112.0.0.0 Safari/537.36" version="21.2.9" etag="HM6bD7TTc-dtG9M0aMDs" type="github">
  <diagram name="Page-1" id="ChJXubemp8RFGHCHmPLh">
    <mxGraphModel>
      <root>
        <mxCell id="0" />
        <mxCell id="1" parent="0" />
      </root>
    </mxGraphModel>
  </diagram>
</mxfile>
